<svg width="699" height="112" viewBox="0 0 699 112" fill="none" xmlns="http://www.w3.org/2000/svg">
<path d="M485.628 108V107V2V1H486.628H534.628C544.331 1 552.727 2.56617 559.785 5.73659C559.786 5.737 559.787 5.73742 559.788 5.73783L559.378 6.65C566.378 9.75 571.778 14.25 575.578 20.15L485.628 108ZM485.628 108H486.628H516.328H517.328V107V80.1L485.628 108ZM33.2557 72H78.6057H79.6057V71V48.05V47.05H78.6057H33.2557V25.95H84.9057H85.9057V24.95V2V1H84.9057H2.55566H1.55566V2V107V108H2.55566H32.2557H33.2557V107V72ZM112.896 1H111.896V2V60.2C111.896 75.9893 116.304 88.3278 125.247 97.0653C134.181 105.794 146.56 110.1 162.246 110.1C177.932 110.1 190.31 105.794 199.245 97.0653C208.188 88.3278 212.596 75.9893 212.596 60.2V2V1H211.596H182.346H181.346V2V59.3C181.346 68.216 179.604 74.3584 176.352 77.9821C173.076 81.6318 168.519 83.5 162.546 83.5C156.577 83.5 151.964 81.6336 148.586 77.9772C145.337 74.3529 143.596 68.212 143.596 59.3V2V1H142.596H112.896ZM266.454 107V108H267.454H297.155H298.155V107V26.55H329.254H330.254V25.55V2V1H329.254H235.204H234.204V2V25.55V26.55H235.204H266.454V107ZM352.808 1H351.808V2V60.2C351.808 75.9893 356.216 88.3278 365.159 97.0653C374.094 105.794 386.472 110.1 402.158 110.1C417.844 110.1 430.223 105.794 439.157 97.0653C448.1 88.3278 452.508 75.9893 452.508 60.2V2V1H451.508H422.258H421.258V2V59.3C421.258 68.216 419.516 74.3584 416.264 77.9821C412.988 81.6318 408.431 83.5 402.458 83.5C396.488 83.5 391.875 81.6333 388.497 77.9764C385.248 74.352 383.508 68.2113 383.508 59.3V2V1H382.508H352.808ZM643.063 65.85H688.713H689.713V64.85V42.65V41.65H688.713H643.063V25.95H695.013H696.013V24.95V2V1H695.013H612.663H611.663V2V107V108H612.663H696.963H697.963V107V84.05V83.05H696.963H643.063V65.85Z" stroke="white" stroke-width="2"/>
</svg>
