<svg width="101" height="20" viewBox="0 0 101 20" fill="none" xmlns="http://www.w3.org/2000/svg">
<path fill-rule="evenodd" clip-rule="evenodd" d="M9.96633 0V8.8686H12.2463V0H9.96633ZM3.19196 8.72517C3.75996 8.93234 4.37596 9.03593 5.03996 9.03593C5.64796 9.03593 6.26796 8.94429 6.89996 8.76103C7.53196 8.57776 8.08796 8.31481 8.56796 7.97217V4.50601H6.46796V6.80419C6.38371 6.84388 6.29971 6.87863 6.21596 6.90842C5.87996 7.01998 5.53596 7.07575 5.18396 7.07575C4.83196 7.07575 4.50796 7.01998 4.21196 6.90842C3.92396 6.7889 3.67596 6.62555 3.46796 6.41838C3.25996 6.20324 3.09596 5.94825 2.97596 5.65343C2.86396 5.35861 2.80796 5.0359 2.80796 4.6853C2.80796 4.31876 2.86396 3.99206 2.97596 3.70521C3.09596 3.41039 3.25996 3.15939 3.46796 2.95221C3.67596 2.73707 3.92796 2.57373 4.22396 2.46217C4.51996 2.35062 4.84796 2.29484 5.20796 2.29484C5.61596 2.29484 5.98396 2.37452 6.31196 2.53388C6.64796 2.68528 6.95996 2.91636 7.24796 3.22712L8.75996 1.86456C8.35196 1.37053 7.83596 0.992039 7.21196 0.729089C6.58796 0.466139 5.87996 0.334663 5.08796 0.334663C4.40796 0.334663 3.77996 0.442234 3.20396 0.657376C2.63596 0.864549 2.14396 1.16336 1.72796 1.5538C1.31196 1.94424 0.987959 2.40639 0.755959 2.94026C0.523959 3.46616 0.407959 4.04784 0.407959 4.6853C0.407959 5.32275 0.523959 5.90841 0.755959 6.44228C0.987959 6.96818 1.30796 7.42635 1.71596 7.81679C2.13196 8.20724 2.62396 8.51003 3.19196 8.72517ZM16.9921 8.97617C16.2801 8.97617 15.6481 8.83274 15.0961 8.54588C14.5441 8.25903 14.1081 7.8646 13.7881 7.36261C13.4761 6.85264 13.3201 6.27097 13.3201 5.61757C13.3201 4.96418 13.4761 4.38649 13.7881 3.88449C14.1081 3.3825 14.5441 2.99206 15.0961 2.71317C15.6481 2.42631 16.2801 2.28289 16.9921 2.28289C17.7041 2.28289 18.3361 2.42631 18.8881 2.71317C19.4481 2.99206 19.8841 3.3825 20.1961 3.88449C20.5081 4.38649 20.6641 4.96418 20.6641 5.61757C20.6641 6.27097 20.5081 6.85264 20.1961 7.36261C19.8841 7.8646 19.4481 8.25903 18.8881 8.54588C18.3361 8.83274 17.7041 8.97617 16.9921 8.97617ZM16.9921 7.17137C17.2561 7.17137 17.4881 7.11161 17.6881 6.99209C17.8961 6.87256 18.0601 6.69726 18.1801 6.46619C18.3001 6.22714 18.3601 5.94427 18.3601 5.61757C18.3601 5.29088 18.3001 5.01598 18.1801 4.79287C18.0601 4.56179 17.8961 4.38649 17.6881 4.26697C17.4881 4.14744 17.2561 4.08768 16.9921 4.08768C16.7361 4.08768 16.5041 4.14744 16.2961 4.26697C16.0961 4.38649 15.9321 4.56179 15.8041 4.79287C15.6841 5.01598 15.6241 5.29088 15.6241 5.61757C15.6241 5.94427 15.6841 6.22714 15.8041 6.46619C15.9321 6.69726 16.0961 6.87256 16.2961 6.99209C16.5041 7.11161 16.7361 7.17137 16.9921 7.17137ZM24.3482 8.6176C24.7402 8.85664 25.2282 8.97617 25.8122 8.97617C26.4042 8.97617 26.9402 8.84071 27.4202 8.56979C27.9082 8.2909 28.2922 7.90445 28.5722 7.41042C28.8602 6.90842 29.0042 6.31081 29.0042 5.61757C29.0042 4.93231 28.8602 4.34266 28.5722 3.84864C28.2922 3.34664 27.9082 2.96018 27.4202 2.68926C26.9402 2.41835 26.4042 2.28289 25.8122 2.28289C25.2602 2.28289 24.7882 2.40241 24.3962 2.64145C24.2517 2.72957 24.1197 2.83502 24.0002 2.95778V0H21.7202V8.8686H23.8922V8.22227C24.0252 8.37934 24.1772 8.51112 24.3482 8.6176ZM26.0162 6.99209C25.8162 7.11161 25.5882 7.17137 25.3322 7.17137C25.0762 7.17137 24.8442 7.11161 24.6362 6.99209C24.4362 6.87256 24.2722 6.69726 24.1442 6.46619C24.0242 6.22714 23.9642 5.94427 23.9642 5.61757C23.9642 5.29088 24.0242 5.01598 24.1442 4.79287C24.2722 4.56179 24.4362 4.38649 24.6362 4.26697C24.8442 4.14744 25.0762 4.08768 25.3322 4.08768C25.5882 4.08768 25.8162 4.14744 26.0162 4.26697C26.2242 4.38649 26.3882 4.56179 26.5082 4.79287C26.6362 5.01598 26.7002 5.29088 26.7002 5.61757C26.7002 5.94427 26.6362 6.22714 26.5082 6.46619C26.3882 6.69726 26.2242 6.87256 26.0162 6.99209ZM33.8954 8.8686V8.03084C33.7636 8.28286 33.5796 8.48641 33.3434 8.6415C32.9994 8.86461 32.5434 8.97617 31.9754 8.97617C31.4554 8.97617 31.0154 8.88852 30.6554 8.71322C30.2954 8.53792 30.0194 8.29887 29.8274 7.99608C29.6434 7.69329 29.5514 7.35464 29.5514 6.98013C29.5514 6.58173 29.6514 6.23909 29.8514 5.95224C30.0594 5.65741 30.3754 5.43431 30.7994 5.28291C31.2234 5.12355 31.7714 5.04386 32.4434 5.04386H33.7366C33.7181 4.73167 33.607 4.48864 33.4034 4.31477C33.1874 4.11557 32.8394 4.01597 32.3594 4.01597C32.0474 4.01597 31.7314 4.06776 31.4114 4.17135C31.0914 4.26697 30.8194 4.40243 30.5954 4.57772L29.8274 3.03588C30.1954 2.79683 30.6354 2.61357 31.1474 2.48607C31.6674 2.35062 32.1834 2.28289 32.6954 2.28289C33.7514 2.28289 34.5674 2.52592 35.1434 3.01198C35.7274 3.49007 36.0194 4.24306 36.0194 5.27096V8.8686H33.8954ZM33.7394 6.22714V6.7889C33.6434 7.04388 33.4914 7.23512 33.2834 7.36261C33.0834 7.48213 32.8594 7.54189 32.6114 7.54189C32.3474 7.54189 32.1394 7.48213 31.9874 7.36261C31.8354 7.24308 31.7594 7.08372 31.7594 6.88452C31.7594 6.68531 31.8314 6.52595 31.9754 6.40642C32.1274 6.2869 32.3874 6.22714 32.7554 6.22714H33.7394ZM37.4585 0V8.8686H39.7385V0H37.4585ZM74.9312 19.8327V13.3545H77.2112V19.8327H74.9312ZM76.0712 12.6374C75.6552 12.6374 75.3192 12.5219 75.0632 12.2908C74.8072 12.0597 74.6792 11.7728 74.6792 11.4302C74.6792 11.0876 74.8072 10.8007 75.0632 10.5696C75.3192 10.3386 75.6552 10.223 76.0712 10.223C76.4872 10.223 76.8232 10.3346 77.0792 10.5577C77.3352 10.7728 77.4632 11.0517 77.4632 11.3944C77.4632 11.7529 77.3352 12.0517 77.0792 12.2908C76.8312 12.5219 76.4952 12.6374 76.0712 12.6374ZM57.4937 10.9641V19.8327H59.7737V10.9641H57.4937ZM44.792 20C44.104 20 43.44 19.9163 42.8 19.749C42.168 19.5737 41.652 19.3506 41.252 19.0797L42.032 17.3346C42.408 17.5737 42.84 17.7729 43.328 17.9323C43.824 18.0837 44.316 18.1593 44.804 18.1593C45.132 18.1593 45.396 18.1315 45.596 18.0757C45.796 18.0119 45.94 17.9323 46.028 17.8366C46.124 17.7331 46.172 17.6135 46.172 17.4781C46.172 17.2868 46.084 17.1354 45.908 17.0239C45.732 16.9123 45.504 16.8207 45.224 16.749C44.944 16.6773 44.632 16.6056 44.288 16.5338C43.952 16.4621 43.612 16.3705 43.268 16.2589C42.932 16.1474 42.624 16.004 42.344 15.8287C42.064 15.6454 41.836 15.4103 41.66 15.1235C41.484 14.8286 41.396 14.4581 41.396 14.0119C41.396 13.5099 41.532 13.0557 41.804 12.6493C42.084 12.243 42.5 11.9163 43.052 11.6693C43.604 11.4222 44.292 11.2987 45.116 11.2987C45.668 11.2987 46.208 11.3625 46.736 11.49C47.272 11.6095 47.748 11.7888 48.164 12.0278L47.432 13.7848C47.032 13.5697 46.636 13.4103 46.244 13.3067C45.852 13.1952 45.472 13.1394 45.104 13.1394C44.776 13.1394 44.512 13.1752 44.312 13.247C44.112 13.3107 43.968 13.3984 43.88 13.5099C43.792 13.6215 43.748 13.749 43.748 13.8924C43.748 14.0757 43.832 14.2231 44 14.3346C44.176 14.4382 44.404 14.5259 44.684 14.5976C44.972 14.6613 45.284 14.729 45.62 14.8008C45.964 14.8725 46.304 14.9641 46.64 15.0757C46.984 15.1792 47.296 15.3227 47.576 15.5059C47.856 15.6812 48.08 15.9163 48.248 16.2111C48.424 16.498 48.512 16.8605 48.512 17.2988C48.512 17.7848 48.372 18.235 48.092 18.6494C47.82 19.0558 47.408 19.3825 46.856 19.6295C46.312 19.8765 45.624 20 44.792 20ZM52.7655 19.9402C52.0535 19.9402 51.4215 19.7968 50.8695 19.51C50.3175 19.2231 49.8815 18.8287 49.5615 18.3267C49.2495 17.8167 49.0935 17.235 49.0935 16.5816C49.0935 15.9283 49.2495 15.3506 49.5615 14.8486C49.8815 14.3466 50.3175 13.9561 50.8695 13.6772C51.4215 13.3904 52.0535 13.247 52.7655 13.247C53.4775 13.247 54.1095 13.3904 54.6615 13.6772C55.2215 13.9561 55.6575 14.3466 55.9695 14.8486C56.2815 15.3506 56.4375 15.9283 56.4375 16.5816C56.4375 17.235 56.2815 17.8167 55.9695 18.3267C55.6575 18.8287 55.2215 19.2231 54.6615 19.51C54.1095 19.7968 53.4775 19.9402 52.7655 19.9402ZM52.7655 18.1354C53.0295 18.1354 53.2615 18.0757 53.4615 17.9562C53.6695 17.8366 53.8335 17.6613 53.9535 17.4303C54.0735 17.1912 54.1335 16.9083 54.1335 16.5816C54.1335 16.255 54.0735 15.98 53.9535 15.7569C53.8335 15.5259 53.6695 15.3506 53.4615 15.231C53.2615 15.1115 53.0295 15.0518 52.7655 15.0518C52.5095 15.0518 52.2775 15.1115 52.0695 15.231C51.8695 15.3506 51.7055 15.5259 51.5775 15.7569C51.4575 15.98 51.3975 16.255 51.3975 16.5816C51.3975 16.9083 51.4575 17.1912 51.5775 17.4303C51.7055 17.6613 51.8695 17.8366 52.0695 17.9562C52.2775 18.0757 52.5095 18.1354 52.7655 18.1354ZM63.9915 19.9402C63.4635 19.9402 62.9875 19.8367 62.5635 19.6295C62.1475 19.4223 61.8195 19.0996 61.5795 18.6613C61.3475 18.2151 61.2315 17.6534 61.2315 16.9761V13.3545H63.5115V16.6056C63.5115 17.1075 63.6035 17.4661 63.7875 17.6813C63.9795 17.8964 64.2475 18.004 64.5915 18.004C64.8155 18.004 65.0195 17.9522 65.2035 17.8486C65.3875 17.745 65.5355 17.5817 65.6475 17.3585C65.7595 17.1275 65.8155 16.8326 65.8155 16.4741V13.3545H68.0955V19.8327H65.9234V19.1553C65.7635 19.3302 65.5795 19.4763 65.3715 19.5936C64.9474 19.8247 64.4874 19.9402 63.9915 19.9402ZM70.524 19.3307C70.988 19.7371 71.636 19.9402 72.468 19.9402C72.772 19.9402 73.064 19.9084 73.344 19.8446C73.624 19.7888 73.86 19.6972 74.052 19.5697L73.488 17.9801C73.296 18.1155 73.064 18.1833 72.792 18.1833C72.592 18.1833 72.428 18.1195 72.3 17.992C72.172 17.8566 72.108 17.6733 72.108 17.4422V15.2908H73.596V13.5936H72.108V11.9083H69.828V13.5936H68.88V15.2908H69.828V17.4661C69.828 18.2948 70.06 18.9163 70.524 19.3307ZM80.061 19.51C80.613 19.7968 81.2449 19.9402 81.957 19.9402C82.669 19.9402 83.301 19.7968 83.853 19.51C84.413 19.2231 84.849 18.8287 85.1609 18.3267C85.473 17.8167 85.629 17.235 85.629 16.5816C85.629 15.9283 85.473 15.3506 85.1609 14.8486C84.849 14.3466 84.413 13.9561 83.853 13.6772C83.301 13.3904 82.669 13.247 81.957 13.247C81.2449 13.247 80.613 13.3904 80.061 13.6772C79.5089 13.9561 79.073 14.3466 78.753 14.8486C78.441 15.3506 78.285 15.9283 78.285 16.5816C78.285 17.235 78.441 17.8167 78.753 18.3267C79.073 18.8287 79.5089 19.2231 80.061 19.51ZM82.653 17.9562C82.453 18.0757 82.221 18.1354 81.957 18.1354C81.701 18.1354 81.4689 18.0757 81.261 17.9562C81.061 17.8366 80.8969 17.6613 80.769 17.4303C80.6489 17.1912 80.589 16.9083 80.589 16.5816C80.589 16.255 80.6489 15.98 80.769 15.7569C80.8969 15.5259 81.061 15.3506 81.261 15.231C81.4689 15.1115 81.701 15.0518 81.957 15.0518C82.221 15.0518 82.453 15.1115 82.653 15.231C82.861 15.3506 83.025 15.5259 83.145 15.7569C83.265 15.98 83.325 16.255 83.325 16.5816C83.325 16.9083 83.265 17.1912 83.145 17.4303C83.025 17.6613 82.861 17.8366 82.653 17.9562ZM90.9211 13.247C91.4251 13.247 91.8811 13.3505 92.2891 13.5577C92.6971 13.7569 93.0171 14.0677 93.2491 14.49C93.4891 14.9123 93.6091 15.4581 93.6091 16.1275V19.8327H91.3291V16.498C91.3291 16.0358 91.2331 15.7012 91.0411 15.494C90.8571 15.2788 90.5971 15.1713 90.2611 15.1713C90.0211 15.1713 89.8011 15.2271 89.6011 15.3386C89.4011 15.4422 89.2451 15.6055 89.1331 15.8287C89.0211 16.0518 88.9651 16.3426 88.9651 16.7012V19.8327H86.6851V13.3545H88.8571V14.0637C89.0322 13.8786 89.2322 13.7259 89.4571 13.6055C89.8891 13.3665 90.3771 13.247 90.9211 13.247ZM95.7846 19.749C96.3126 19.8765 96.8526 19.9402 97.4046 19.9402C98.1086 19.9402 98.6966 19.8446 99.1686 19.6534C99.6486 19.4621 100.009 19.2072 100.249 18.8884C100.497 18.5697 100.621 18.2111 100.621 17.8127C100.621 17.4462 100.553 17.1474 100.417 16.9163C100.281 16.6773 100.097 16.49 99.8646 16.3546C99.6406 16.2111 99.3886 16.1036 99.1086 16.0318C98.8366 15.9601 98.5646 15.9083 98.2926 15.8765C98.0206 15.8366 97.7686 15.8008 97.5366 15.7689C97.3126 15.7291 97.1326 15.6773 96.9966 15.6135C96.8606 15.5418 96.7926 15.4422 96.7926 15.3147C96.7926 15.1872 96.8686 15.0796 97.0206 14.992C97.1806 14.9043 97.4526 14.8605 97.8366 14.8605C98.1246 14.8605 98.4286 14.8964 98.7486 14.9681C99.0686 15.0318 99.3886 15.1553 99.7086 15.3386L100.393 13.7968C100.073 13.6135 99.6766 13.478 99.2046 13.3904C98.7406 13.2948 98.2806 13.247 97.8246 13.247C97.1446 13.247 96.5686 13.3426 96.0966 13.5338C95.6246 13.7171 95.2646 13.9721 95.0166 14.2988C94.7766 14.6175 94.6566 14.984 94.6566 15.3984C94.6566 15.7649 94.7246 16.0677 94.8606 16.3067C94.9966 16.5458 95.1766 16.737 95.4006 16.8805C95.6326 17.0159 95.8846 17.1195 96.1566 17.1912C96.4366 17.255 96.7126 17.3068 96.9846 17.3466C97.2566 17.3864 97.5046 17.4223 97.7286 17.4542C97.9606 17.486 98.1446 17.5338 98.2806 17.5976C98.4246 17.6534 98.4966 17.745 98.4966 17.8725C98.4966 18.008 98.4206 18.1155 98.2686 18.1952C98.1246 18.2749 97.8606 18.3147 97.4766 18.3147C97.0846 18.3147 96.6846 18.2629 96.2766 18.1593C95.8686 18.0478 95.5126 17.9004 95.2086 17.7171L94.5246 19.2709C94.8446 19.4621 95.2646 19.6215 95.7846 19.749ZM42 4.00795H101V6H42V4.00795ZM39 15H0V17H39V15Z" fill="white"/>
</svg>
