<svg width="640" height="115" viewBox="0 0 640 115" fill="none" xmlns="http://www.w3.org/2000/svg">
<path d="M1.88477 110V111H2.88477H30.3348H31.3348V110V59.3934L56.3322 100.173L56.6248 100.65H57.1848H70.3848H70.9529L71.2438 100.162L96.4384 57.8924L96.6848 110.005L96.6895 111H97.6848H124.985H125.988L125.985 109.997L125.685 4.99717L125.682 4.00002H124.685H100.235H99.6649L99.3744 4.49032L64.2826 63.7234L28.1888 4.47974L27.8965 4.00002H27.3348H2.88477H1.88477V5.00002V110ZM171.407 97.3709L171.414 97.3777L171.421 97.3843C176.82 102.376 183.131 106.242 190.345 108.985C197.569 111.732 205.441 113.1 213.95 113.1C222.555 113.1 230.428 111.733 237.556 108.984C244.771 106.241 251.035 102.373 256.336 97.3778C261.634 92.3856 265.761 86.5256 268.714 79.8049C271.775 72.9678 273.3 65.5285 273.3 57.5C273.3 49.4726 271.776 42.0819 268.713 35.3423C265.761 28.6245 261.635 22.7665 256.34 17.7758C251.039 12.6798 244.774 8.76078 237.558 6.01618C230.429 3.26697 222.556 1.90002 213.95 1.90002C205.441 1.90002 197.569 3.26782 190.345 6.01533C183.127 8.75994 176.814 12.6784 171.414 17.7722C166.116 22.7651 161.988 28.6261 159.034 35.3478C156.074 42.0863 154.6 49.4749 154.6 57.5C154.6 65.5251 156.074 72.9138 159.034 79.6523C161.987 86.3721 166.113 92.2803 171.407 97.3709ZM224.679 84.4715L224.669 84.4754C221.4 85.8214 217.831 86.5 213.95 86.5C210.071 86.5 206.45 85.8221 203.076 84.4735C199.806 83.1263 196.923 81.2054 194.421 78.7065C192.018 76.108 190.086 73.0215 188.631 69.4351C187.282 65.8655 186.6 61.8911 186.6 57.5C186.6 53.0038 187.284 49.0323 188.629 45.5692C190.086 41.9774 192.019 38.9406 194.421 36.4431C196.926 33.8422 199.809 31.8726 203.076 30.5265C206.45 29.1779 210.071 28.5 213.95 28.5C217.831 28.5 221.4 29.1787 224.669 30.5248L224.679 30.5285C228.044 31.8748 230.92 33.841 233.316 36.4294L233.329 36.4435L233.343 36.4571C235.835 38.9495 237.761 41.9763 239.115 45.5539L239.121 45.5694L239.127 45.5846C240.568 49.043 241.3 53.0087 241.3 57.5C241.3 61.8875 240.569 65.8579 239.123 69.4243L239.119 69.4352L239.115 69.4461C237.76 73.0266 235.831 76.1093 233.33 78.7064L233.329 78.7069C230.932 81.1999 228.053 83.1219 224.679 84.4715ZM301.855 110V111H302.855H352.505C364.23 111 374.585 108.827 383.544 104.449C392.501 100.072 399.497 93.8999 404.502 85.932C409.616 77.8505 412.155 68.3601 412.155 57.5C412.155 46.5423 409.617 37.0488 404.499 29.0631C399.494 21.0976 392.499 14.927 383.544 10.5516C374.585 6.17352 364.23 4.00002 352.505 4.00002H302.855H301.855V5.00002V110ZM366.442 33.0362L366.454 33.0425L366.466 33.0484C370.79 35.1621 374.141 38.275 376.541 42.4026C378.934 46.519 380.155 51.5368 380.155 57.5C380.155 63.357 378.937 68.3789 376.539 72.6016C374.137 76.7298 370.783 79.8945 366.454 82.1079C362.221 84.2233 357.182 85.3 351.305 85.3H333.555V29.7H351.305C357.177 29.7 362.212 30.825 366.442 33.0362ZM472.181 68.85H517.831H518.831V67.85V45.65V44.65H517.831H472.181V28.95H524.131H525.131V27.95V5.00002V4.00002H524.131H441.781H440.781V5.00002V110V111H441.781H526.081H527.081V110V87.05V86.05H526.081H472.181V68.85ZM556.562 110V111H557.562H637.362H638.362V110V86.45V85.45H637.362H588.263V5.00002V4.00002H587.263H557.562H556.562V5.00002V110Z" stroke="white" stroke-width="2"/>
</svg>
