<svg width="589" height="114" viewBox="0 0 589 114" fill="none" xmlns="http://www.w3.org/2000/svg">
<path d="M22.0889 109.015L22.0817 109.013C14.1117 106.794 7.55327 103.956 2.43769 100.477L1.74648 100.007L2.08645 99.2433L11.8364 77.3433L12.3089 76.2821L13.288 76.9071C17.9053 79.8543 23.224 82.3195 29.2523 84.2967C35.3602 86.1676 41.4084 87.1 47.4 87.1C51.4451 87.1 54.6379 86.7542 57.0129 86.0919C59.4285 85.3169 61.0338 84.3877 61.9628 83.3743L61.9652 83.3717C63.0023 82.2482 63.5 80.9876 63.5 79.55C63.5 77.5258 62.6045 75.9291 60.6631 74.6937C58.5788 73.3673 55.8353 72.2516 52.401 71.3685C48.9183 70.473 45.0334 69.5763 40.7451 68.6788L40.7405 68.6778C36.505 67.7702 32.2216 66.611 27.8904 65.2009L27.8838 65.1987C23.6133 63.7752 19.6901 61.9421 16.1178 59.6966L16.1093 59.6913L16.1008 59.6857C12.4766 57.3041 9.52307 54.2464 7.24672 50.5215L7.2404 50.5111L7.24046 50.5111C4.9248 46.6166 3.8 41.777 3.8 36.05C3.8 29.5584 5.55525 23.6644 9.06795 18.3953L9.07541 18.3841L9.07549 18.3842C12.7003 13.1024 18.0601 8.89628 25.0902 5.73783C32.1567 2.56301 40.9069 1 51.3 1C58.2751 1 65.1014 1.80846 71.7771 3.42608C78.5584 4.94508 84.6027 7.22787 89.8997 10.2838L90.6601 10.7225L90.3236 11.5333L81.1736 33.5833L80.7492 34.6061L79.7748 34.0799C74.8359 31.4129 69.959 29.4441 65.1436 28.1666L65.1344 28.1641L65.1253 28.1615C60.3051 26.7843 55.6477 26.1 51.15 26.1C47.1097 26.1 43.9377 26.5453 41.5887 27.3909L41.5719 27.397L41.5548 27.4024C39.1597 28.1688 37.5671 29.1832 36.6363 30.3678C35.6764 31.5895 35.2 32.9714 35.2 34.55C35.2 36.4712 36.0441 38.0196 37.8824 39.2531C39.9694 40.4821 42.7103 41.5461 46.1331 42.4274C49.7251 43.2256 53.6165 44.0737 57.8072 44.9717C57.808 44.9719 57.8088 44.972 57.8095 44.9722L57.6 45.95C61.9 46.85 66.15 48 70.35 49.4L22.0889 109.015ZM22.0889 109.015L22.0961 109.017C30.1822 111.14 38.5677 112.2 47.25 112.2C57.7391 112.2 66.4914 110.638 73.4616 107.461C80.4909 104.303 85.8041 100.095 89.3301 94.8076C92.9376 89.4476 94.75 83.6044 94.75 77.3C94.75 71.6775 93.627 66.938 91.3117 63.1424C89.1352 59.3125 86.2264 56.246 82.5907 53.9587C79.0107 51.6074 75.0295 49.7713 70.653 48.4469L22.0889 109.015ZM40.95 67.7C45.25 68.6 49.15 69.5 52.65 70.4C56.15 71.3 59 72.45 61.2 73.85C63.4 75.25 64.5 77.15 64.5 79.55C64.5 81.25 63.9 82.75 62.7 84.05L40.95 67.7ZM40.95 67.7C36.75 66.8 32.5 65.65 28.2 64.25L40.95 67.7ZM121.469 109.1V110.1H122.469H152.169H153.169V109.1V82.65H170.469C180.174 82.65 188.57 81.0834 195.629 77.9122L195.635 77.9095C202.787 74.64 208.341 70.0228 212.256 64.048C216.177 58.0633 218.119 51.0168 218.119 42.95C218.119 34.7876 216.179 27.6916 212.258 21.7056C208.343 15.6288 202.786 11.0081 195.627 7.83704C188.569 4.66632 180.173 3.1 170.469 3.1H122.469H121.469V4.1V109.1ZM168.669 57.25H153.169V28.5H168.669C174.75 28.5 179.061 29.8277 181.8 32.2933L181.806 32.2987L181.812 32.3041C184.652 34.7775 186.119 38.2783 186.119 42.95C186.119 47.5144 184.657 50.9684 181.812 53.4459L181.806 53.4513L181.8 53.4567C179.061 55.9224 174.75 57.25 168.669 57.25ZM277 67.95H322.65H323.65V66.95V44.75V43.75H322.65H277V28.05H328.95H329.95V27.05V4.1V3.1H328.95H246.6H245.6V4.1V109.1V110.1H246.6H330.9H331.9V109.1V86.15V85.15H330.9H277V67.95ZM392.781 67.95H438.431H439.431V66.95V44.75V43.75H438.431H392.781V28.05H444.731H445.731V27.05V4.1V3.1H444.731H362.381H361.381V4.1V109.1V110.1H362.381H446.681H447.681V109.1V86.15V85.15H446.681H392.781V67.95ZM477.163 109.1V110.1H478.163H527.812C539.537 110.1 549.892 107.927 558.852 103.548C567.808 99.1721 574.804 92.9998 579.809 85.032C584.923 76.9505 587.463 67.4601 587.463 56.6C587.463 45.6445 584.925 36.1527 579.809 28.1681C574.804 20.2002 567.808 14.0279 558.852 9.65153C549.892 5.2735 539.537 3.1 527.812 3.1H478.163H477.163V4.1V109.1ZM541.749 32.1362L541.761 32.1425L541.773 32.1484C546.097 34.2621 549.448 37.375 551.848 41.5026C554.241 45.6189 555.463 50.6368 555.463 56.6C555.463 62.457 554.244 67.4789 551.846 71.7016C549.444 75.8299 546.089 78.9948 541.76 81.2082C537.527 83.3234 532.488 84.4 526.612 84.4H508.862V28.8H526.612C532.484 28.8 537.519 29.925 541.749 32.1362Z" stroke="white" stroke-width="2"/>
</svg>
